/* XPM */
static char * coins_xpm[] = {
"32 32 507 2",
"  	c #000049",
". 	c #000000",
"+ 	c #0C0E10",
"@ 	c #4D5252",
"# 	c #5E625F",
"$ 	c #0F0E0F",
"% 	c #0A0B0B",
"& 	c #141515",
"* 	c #0C0D0D",
"= 	c #181B1C",
"- 	c #9AA09B",
"; 	c #CBD1C9",
"> 	c #E4EAE0",
", 	c #DCE2D8",
"' 	c #C5CAC1",
") 	c #404341",
"! 	c #0B0C0B",
"~ 	c #0D0F11",
"{ 	c #747A75",
"] 	c #D5DBCA",
"^ 	c #DDE3D0",
"/ 	c #B8BDAF",
"( 	c #2F322F",
"_ 	c #010100",
": 	c #686F70",
"< 	c #E8F0E5",
"[ 	c #ECF5EA",
"} 	c #EBF2E9",
"| 	c #F1F7EE",
"1 	c #E8EEE3",
"2 	c #CDD2C9",
"3 	c #727674",
"4 	c #030303",
"5 	c #2A3132",
"6 	c #C9D2C2",
"7 	c #FDFFED",
"8 	c #FBFFEA",
"9 	c #F9FFE9",
"0 	c #FAFFEB",
"a 	c #B9C2B3",
"b 	c #2D2F2B",
"c 	c #6F7775",
"d 	c #D8E4DB",
"e 	c #CAD8D2",
"f 	c #C5D1CF",
"g 	c #CFDBD6",
"h 	c #DDE7E0",
"i 	c #EBF1E7",
"j 	c #CAD0C8",
"k 	c #161719",
"l 	c #000100",
"m 	c #191A1B",
"n 	c #D1D9C8",
"o 	c #FAFFEA",
"p 	c #F7FDE8",
"q 	c #E3EDDD",
"r 	c #D0DDD2",
"s 	c #C9D7CE",
"t 	c #AFC0BE",
"u 	c #485357",
"v 	c #6D7C7D",
"w 	c #BACAC7",
"x 	c #A8BABB",
"y 	c #9CAFB3",
"z 	c #97AAB0",
"A 	c #B1C2C1",
"B 	c #BDC9C8",
"C 	c #96A0A0",
"D 	c #0B0C0C",
"E 	c #252829",
"F 	c #5E6767",
"G 	c #333A3F",
"H 	c #000105",
"I 	c #090B0A",
"J 	c #555A55",
"K 	c #F5FCE8",
"L 	c #E8F1DF",
"M 	c #CCD8CF",
"N 	c #BECEC8",
"O 	c #B3C3C0",
"P 	c #B0C1BE",
"Q 	c #9AAFB3",
"R 	c #495D6A",
"S 	c #51636D",
"T 	c #7C929C",
"U 	c #718793",
"V 	c #6B8392",
"W 	c #68808F",
"X 	c #889BA4",
"Y 	c #7F8D90",
"Z 	c #3A454A",
"` 	c #1C2026",
" .	c #B4C3BE",
"..	c #C9D8D2",
"+.	c #CCDDD6",
"@.	c #4F5B6A",
"#.	c #111622",
"$.	c #111519",
"%.	c #596161",
"&.	c #D3DFD3",
"*.	c #BFCEC7",
"=.	c #A9BBBA",
"-.	c #849AA2",
";.	c #718998",
">.	c #748C99",
",.	c #788E9D",
"'.	c #3F5362",
").	c #232D35",
"!.	c #516877",
"~.	c #526B7B",
"{.	c #4A6174",
"].	c #445B6F",
"^.	c #445568",
"/.	c #161E2F",
"(.	c #10192D",
"_.	c #8D9DA5",
":.	c #D7E4DF",
"<.	c #E1ECE3",
"[.	c #EBF8EC",
"}.	c #C6D6D1",
"|.	c #69787D",
"1.	c #000005",
"2.	c #0D1115",
"3.	c #485156",
"4.	c #C0CFC7",
"5.	c #B4C4C0",
"6.	c #879CA4",
"7.	c #6D8594",
"8.	c #698393",
"9.	c #6B8493",
"0.	c #6E8797",
"a.	c #293948",
"b.	c #0D1113",
"c.	c #303D48",
"d.	c #31404D",
"e.	c #212E3C",
"f.	c #162432",
"g.	c #0F1928",
"h.	c #00010E",
"i.	c #10192E",
"j.	c #ABBCC2",
"k.	c #D0DCD9",
"l.	c #D1DDD7",
"m.	c #DEEAE1",
"n.	c #DDECE1",
"o.	c #9BAAA9",
"p.	c #040810",
"q.	c #000002",
"r.	c #151B21",
"s.	c #8A999B",
"t.	c #8FA6AB",
"u.	c #6A8393",
"v.	c #6C8697",
"w.	c #657D8F",
"x.	c #2D3A45",
"y.	c #010001",
"z.	c #222521",
"A.	c #70756D",
"B.	c #575C54",
"C.	c #030304",
"D.	c #030718",
"E.	c #5D7384",
"F.	c #6E8590",
"G.	c #9AADAF",
"H.	c #CFDAD5",
"I.	c #E3F0E5",
"J.	c #D0E0D7",
"K.	c #1B272C",
"L.	c #0A0B0A",
"M.	c #070808",
"N.	c #181F24",
"O.	c #55656F",
"P.	c #6A8292",
"Q.	c #667D8F",
"R.	c #2C384A",
"S.	c #14182B",
"T.	c #34363A",
"U.	c #4A5052",
"V.	c #191B20",
"W.	c #1D201F",
"X.	c #AEB8AF",
"Y.	c #EBF3E2",
"Z.	c #DAE5D6",
"`.	c #808681",
" +	c #31353A",
".+	c #2C3C51",
"++	c #647B88",
"@+	c #6E848F",
"#+	c #B2C2C2",
"$+	c #D1DED7",
"%+	c #CBDAD2",
"&+	c #263135",
"*+	c #484C48",
"=+	c #B1BBB2",
"-+	c #A3ACA4",
";+	c #626C69",
">+	c #171B1C",
",+	c #2B363D",
"'+	c #171C20",
")+	c #3A3D42",
"!+	c #87908B",
"~+	c #DEE6D7",
"{+	c #E1ECDD",
"]+	c #96A29D",
"^+	c #111920",
"/+	c #232B32",
"(+	c #D8E2D3",
"_+	c #F6FDEA",
":+	c #EFF5E7",
"<+	c #D4DED2",
"[+	c #9CA49F",
"}+	c #121825",
"|+	c #556B78",
"1+	c #647C87",
"2+	c #8C9FA5",
"3+	c #B1C3C1",
"4+	c #A7B9B7",
"5+	c #182128",
"6+	c #090A09",
"7+	c #AEB7AF",
"8+	c #D6E2D7",
"9+	c #D7E3D8",
"0+	c #D2DED3",
"a+	c #7B8988",
"b+	c #030506",
"c+	c #0A0D0E",
"d+	c #8A9897",
"e+	c #D2DED0",
"f+	c #FCFFED",
"g+	c #EEF6E5",
"h+	c #BFCCC2",
"i+	c #192530",
"j+	c #091526",
"k+	c #BBC8BE",
"l+	c #C8D3C8",
"m+	c #D7E1D4",
"n+	c #D8E3D5",
"o+	c #BCC8BF",
"p+	c #171A21",
"q+	c #222D38",
"r+	c #586F7B",
"s+	c #6B808C",
"t+	c #677A83",
"u+	c #404F5C",
"v+	c #02040A",
"w+	c #0C0D0C",
"x+	c #B8C4BC",
"y+	c #D3DFD5",
"z+	c #D3DFD4",
"A+	c #DDE7DA",
"B+	c #BECCC5",
"C+	c #232730",
"D+	c #090D0E",
"E+	c #96A7A2",
"F+	c #CEDACD",
"G+	c #B1BDB6",
"H+	c #97A6A5",
"I+	c #A6B6B0",
"J+	c #212C32",
"K+	c #0D1922",
"L+	c #B1BEB7",
"M+	c #839699",
"N+	c #96A6A4",
"O+	c #B6C5BD",
"P+	c #91A3A3",
"Q+	c #121622",
"R+	c #010206",
"S+	c #202C38",
"T+	c #303C47",
"U+	c #0B0E1E",
"V+	c #000107",
"W+	c #030405",
"X+	c #8A9898",
"Y+	c #B1C1BA",
"Z+	c #ACBCB7",
"`+	c #B9C8C2",
" @	c #C4D1C8",
".@	c #6D7E80",
"+@	c #010912",
"@@	c #5C7078",
"#@	c #94A5A4",
"$@	c #7B8D90",
"%@	c #708589",
"&@	c #85999A",
"*@	c #2F3C43",
"=@	c #141C22",
"-@	c #A3AFAA",
";@	c #677D86",
">@	c #6B8188",
",@	c #74888C",
"'@	c #495B63",
")@	c #020508",
"!@	c #1C2224",
"~@	c #919D9B",
"{@	c #B8C4BB",
"]@	c #5A6368",
"^@	c #1E232A",
"/@	c #040507",
"(@	c #596B75",
"_@	c #98A9A8",
":@	c #90A2A3",
"<@	c #96A7A7",
"[@	c #819397",
"}@	c #141E2C",
"|@	c #3D4B57",
"1@	c #728489",
"2@	c #6A7E85",
"3@	c #596F7A",
"4@	c #617681",
"5@	c #2B3A43",
"6@	c #0F151A",
"7@	c #637478",
"8@	c #5F7680",
"9@	c #4B5E66",
"0@	c #07090C",
"a@	c #485458",
"b@	c #D2DFD5",
"c@	c #E8F3E5",
"d@	c #C3CFC5",
"e@	c #747D7D",
"f@	c #2D3B44",
"g@	c #617682",
"h@	c #667B86",
"i@	c #6D8189",
"j@	c #768990",
"k@	c #809499",
"l@	c #3D4E5B",
"m@	c #1C242A",
"n@	c #3F515C",
"o@	c #506673",
"p@	c #4F6573",
"q@	c #496271",
"r@	c #243139",
"s@	c #0B1013",
"t@	c #38484F",
"u@	c #303F45",
"v@	c #0F1315",
"w@	c #1A1D1D",
"x@	c #1C1F1F",
"y@	c #030406",
"z@	c #242F38",
"A@	c #75888D",
"B@	c #C1CDC5",
"C@	c #CED9CE",
"D@	c #9CA69D",
"E@	c #050608",
"F@	c #3F515D",
"G@	c #4F6575",
"H@	c #506777",
"I@	c #546A79",
"J@	c #5F7582",
"K@	c #495E6B",
"L@	c #070909",
"M@	c #0F1518",
"N@	c #3F545F",
"O@	c #4B626F",
"P@	c #465F6D",
"Q@	c #172026",
"R@	c #050607",
"S@	c #030404",
"T@	c #191D1C",
"U@	c #848D88",
"V@	c #C6D3CA",
"W@	c #C2CEC5",
"X@	c #4F5A5E",
"Y@	c #192430",
"Z@	c #485C6B",
"`@	c #677B84",
" #	c #727E7F",
".#	c #3A4245",
"+#	c #000001",
"@#	c #1F282F",
"##	c #3D4F5B",
"$#	c #4F6778",
"%#	c #506877",
"&#	c #506574",
"*#	c #2D3B45",
"=#	c #020302",
"-#	c #28343B",
";#	c #455966",
">#	c #384C59",
",#	c #0C1214",
"'#	c #020102",
")#	c #06080A",
"!#	c #5F6865",
"~#	c #CBD8CE",
"{#	c #E4F2E6",
"]#	c #DFECE0",
"^#	c #707C7D",
"/#	c #202B37",
"(#	c #4A5F6E",
"_#	c #516774",
":#	c #3E4E56",
"<#	c #1A222B",
"[#	c #050709",
"}#	c #2B3941",
"|#	c #3D4F5C",
"1#	c #101518",
"2#	c #181B19",
"3#	c #202326",
"4#	c #181A21",
"5#	c #060708",
"6#	c #030505",
"7#	c #06090B",
"8#	c #5D6C71",
"9#	c #CDDDD5",
"0#	c #D4E2D8",
"a#	c #CEDDD3",
"b#	c #C1D1C9",
"c#	c #7B888A",
"d#	c #2C3B47",
"e#	c #4D6472",
"f#	c #4C616F",
"g#	c #22313C",
"h#	c #0B131A",
"i#	c #060809",
"j#	c #0D1114",
"k#	c #303330",
"l#	c #B1BCB5",
"m#	c #C4D1C9",
"n#	c #C1CEC7",
"o#	c #708085",
"p#	c #18242D",
"q#	c #11181B",
"r#	c #86989B",
"s#	c #ADBCB9",
"t#	c #ABBAB7",
"u#	c #A5B3B1",
"v#	c #9BAAAA",
"w#	c #6E7F87",
"x#	c #24303B",
"y#	c #2E3C47",
"z#	c #04070C",
"A#	c #010101",
"B#	c #020202",
"C#	c #9FAAA4",
"D#	c #CAD7CE",
"E#	c #CFDCD1",
"F#	c #CDD9CF",
"G#	c #B8C6C0",
"H#	c #70848C",
"I#	c #445661",
"J#	c #050909",
"K#	c #435765",
"L#	c #6B7F89",
"M#	c #73868D",
"N#	c #687C86",
"O#	c #4B616F",
"P#	c #0D1219",
"Q#	c #111417",
"R#	c #010202",
"S#	c #687374",
"T#	c #ACBAB6",
"U#	c #9BACAC",
"V#	c #94A5A6",
"W#	c #8E9FA1",
"X#	c #85989B",
"Y#	c #657A85",
"Z#	c #313D44",
"`#	c #0D1215",
" $	c #25323C",
".$	c #496171",
"+$	c #4B6272",
"@$	c #495F6F",
"#$	c #496070",
"$$	c #3D5261",
"%$	c #020305",
"&$	c #000003",
"*$	c #1C232A",
"=$	c #576B76",
"-$	c #657983",
";$	c #6A7D86",
">$	c #667A82",
",$	c #5E737D",
"'$	c #5A6F7B",
")$	c #4F636F",
"!$	c #2D3E47",
"~$	c #040A12",
"{$	c #2D3E4A",
"]$	c #425867",
"^$	c #3D5361",
"/$	c #394E5B",
"($	c #101922",
"_$	c #000109",
":$	c #21282D",
"<$	c #4B5F69",
"[$	c #556A75",
"}$	c #586E7A",
"|$	c #586D7A",
"1$	c #596E7B",
"2$	c #495D67",
"3$	c #293640",
"4$	c #000006",
"5$	c #060B13",
"6$	c #00040B",
"7$	c #000209",
"8$	c #00030A",
"9$	c #000106",
"0$	c #05070F",
"a$	c #0F161F",
"b$	c #28353D",
"c$	c #32414B",
"d$	c #2C3B43",
"e$	c #0F171E",
"f$	c #03080F",
"g$	c #000104",
"h$	c #000004",
"                                                                ",
"                                                                ",
"                                                                ",
"                              . . . .                           ",
"                    . . . . . . + @ # $ . .                     ",
"                . % & * . . = - ; > , ' ) ! .                   ",
"            . ~ { ] ^ / ( _ : < [ } | 1 2 3 4 .                 ",
"          . 5 6 7 8 9 0 a b c d e f g h i j k . l .             ",
"        . m n o p q r s t u v w x y z A B C D E F G H .         ",
"      . I J K L M N O P Q R S T U V W X Y Z `  ...+.@.#.        ",
"      . $.%.&.*.=.-.;.>.,.'.).!.~.{.].^./.(._.:.<.[.}.|.1.      ",
"      . 2.3.4.5.6.7.8.9.0.a.b.c.d.e.f.g.h.i.j.k.l.m.n.o.p.      ",
"      . q.r.s.t.9.u.v.w.x.. . _ y.z.A.B.C.D.E.F.G.H.I.J.K.      ",
"      . L.M.N.O.P.Q.R.S.T.U.V.. W.X.Y.Z.`. +.+++@+#+$+%+&+.     ",
"    . *+=+-+;+>+,+'+)+!+~+{+]+^+/+(+_+:+<+[+}+|+1+2+3+4+5+.     ",
"    6+7+8+9+0+a+b+c+d+e+f+g+h+i+j+k+l+m+n+o+p+q+r+s+t+u+v+.     ",
"    w+x+y+z+A+B+C+D+E+F+G+H+I+J+K+L+M+N+O+P+Q+R+S+T+U+V+.       ",
"    W+X+Y+Z+`+ @.@+@@@#@$@%@&@*@=@-@;@>@,@'@)@!@~@{@]@^@.       ",
"    /@(@P+_@:@<@[@}@|@1@2@3@4@5@6@7@8@9@N.0@. a@b@c@d@e@.       ",
"    . f@g@h@i@j@k@l@m@n@o@p@q@r@s@t@u@v@w@x@y@z@A@B@C@D@.       ",
"      E@F@G@H@I@J@K@L@M@N@O@P@Q@R@S@T@U@V@W@X@Y@Z@`@ #.#+#      ",
"      . @###$#%#&#*#=#4 -#;#>#,#'#)#!#~#{#]#^#/#(#_#:#<#q.      ",
"      +#. [#}#|#1#2#3#4#5#D+6#. 7#8#9#0#a#b#c#d#e#f#g#h#.       ",
"        . . i#j#k#l#m#n#o#p#W+. q#r#s#t#u#v#w#x#;#y#z#A#        ",
"          . . B#C#D#E#F#G#H#I#[#J#K#L#M#i@N#O#P#Q#R#. .         ",
"            . . S#T#U#V#W#X#Y#Z#`# $.$+$@$#$$$%$H &$            ",
"              . *$=$-$;$>$,$'$)$!$~${$]$^$/$($_$V+              ",
"                . :$<$[$}$|$1$2$3$4$V+5$6$7$8$9$                ",
"                  +#0$a$b$c$d$e$f$g$q.h$V+9$                    ",
"                        h$h$h$9$H                               ",
"                                                                ",
"                                                                "};
