/* XPM */
static char * exit_xpm[] = {
"32 32 11 1",
" 	c None",
".	c #494545",
"+	c #302828",
"@	c #222122",
"#	c #313137",
"$	c #252526",
"%	c #1C1A20",
"&	c #A3005A",
"*	c #3E1C49",
"=	c #7F075C",
"-	c #E9007F",
"                    .+.         ",
"          +@@++##$%####$        ",
"         ++@@@+###%+##$         ",
"      ##+##@@@@@$$@@@%++        ",
"     &###+$$@@@@@%@@%+++        ",
"     * ##@$$$@@**@@%++##        ",
"       %$$$%%**&&*@%+#+#+       ",
"     .#$%%$$$***&&*$$##+#       ",
"     ##$$$$##****&&$$###.       ",
"     ##$%@$##****&&&@+###       ",
"     #@$%@#.$*=***&&$#+##       ",
"    ##$@%@$##*****&&@$##$       ",
"    #+$$%@$#+*&***&&*$#$%##     ",
"    #+@@@%@++&&***&&&$$$$###    ",
"    ++@%@%@@*&&***&&&$$%$####   ",
"    +@%##$@******&&&&$%$#####   ",
"    %%%##$$****=*&*&&%%$##&&#   ",
"    $%##+#$@**=**&**&%$$##&*    ",
"   .$%###+@$**==*&**&@$$#+#*    ",
"   #$$$###$@*&**&&**&$%$$##$    ",
"  .#$$%$#$$**-&*&&**&@%$$&*$    ",
"  +#$@%%$@$**&&&*&*&&$@@$$$     ",
"  ###$%%%$$*******&&&$@%@@$     ",
" +#+@%%$.$%**=****&&*@@%@@@     ",
" +##$%###.$$*****&-&@%%%%%%     ",
" +#$%$#####$@****&&&%%$$$$$+    ",
" ++@%#+##++@@**&&&&*$@$$@$###   ",
" +@@%++++@@@@@*****$$$$++$$#++  ",
" @@@%@++@@@@@@@***@$$$$$#+@+++  ",
"  %%%%%%@@@@@@***@@@@@@@@@@@@@  ",
"                                ",
"                                "};
