/* XPM */
static char * player_xpm[] = {
"32 32 7 1",
" 	c None",
".	c #5A716B",
"+	c #313245",
"@	c #120E27",
"#	c #56175B",
"$	c #911064",
"%	c #21212E",
"                                ",
"                                ",
"                                ",
"                                ",
"                                ",
"                                ",
"            .....               ",
"           ....+++              ",
"           ....+++              ",
"          ....++@@++            ",
"          ..++@@#@@@            ",
"         ...++@$##@@            ",
"         ...++@#$#@@            ",
"         ...++@#$#@@            ",
"         ...++@###              ",
"       .....++@$##              ",
"       .....++@@@@              ",
"       .....++++@@++            ",
"       .....++%+++++            ",
"       .....++%+++++            ",
"       ....+++%%%%++            ",
"       ....+++%%%%+++           ",
"       ..+..++%%%%+++           ",
"       +++....%%%%  +++         ",
"       +++....%%%%  +++         ",
"       ++++%..%%%%              ",
"       ++++%..%%%%              ",
"       ++++%    %+              ",
"       +++      ++              ",
"       +++      ++              ",
"       +++      ++              ",
"       ++        +              "};
