/* XPM */
static char * wall_xpm[] = {
"32 32 3 1",
" 	c #105060",
".	c #90B0A0",
"+	c #001010",
"  ................++  ........  ",
"  ................++  ........  ",
"..                ++..        ++",
"..                ++..        ++",
"..                ++..        ++",
"..                ++..        ++",
"..                ++..        ++",
"..                ++..        ++",
"..                ++..++      ++",
"..                ++..++      ++",
"..                ++  ++++++++  ",
"..                ++  ++++++++  ",
"..                ++..........++",
"..                ++..........++",
"..                ++..        ++",
"..                ++..        ++",
"..                ++..        ++",
"..                ++..        ++",
"..                ++..        ++",
"..                ++..        ++",
"++++            ++..          ++",
"++++            ++..          ++",
"....++++        ++..          ++",
"....++++        ++..          ++",
"..  ....++++++++..            ++",
"..  ....++++++++..            ++",
"..      ......++..            ++",
"..      ......++..            ++",
"..            ++..          ++++",
"..            ++..          ++++",
"  ++++++++++++  ..++++++++++++  ",
"  ++++++++++++  ..++++++++++++  "};
